<svg xmlns="http://www.w3.org/2000/svg" xmlns:xlink="http://www.w3.org/1999/xlink" id="Layer_1" x="0px" y="0px" viewBox="0 0 400 300" style="enable-background:new 0 0 400 300;" xml:space="preserve"><style type="text/css">	.st0{fill:#FFFFFF;}</style><polygon class="st0" points="201.8,87.4 161.5,87.4 161.5,75.9 155.7,75.9 155.7,87.4 155.7,98.9 155.7,110.4 161.5,110.4  161.5,98.9 201.8,98.9 242.1,98.9 242.1,110.4 247.8,110.4 247.8,98.9 247.8,87.4 "></polygon><g>	<path class="st0" d="M123.4,167.8v-22.8l-10.2,17.7h-1.6l-10.1-17.6v22.8h-2.7v-27.8h2.8l10.8,19l10.9-19h2.8v27.8h-2.7V167.8z"></path>	<path class="st0" d="M144.7,167.8v-27.8h2.7v27.8H144.7z"></path>	<path class="st0" d="M186.2,163.8c-2.6,2.8-5.6,4.3-8.9,4.3c-1.9,0-3.6-0.4-5.2-1.2c-1.6-0.8-2.9-1.9-4.1-3.2  c-1.2-1.3-2.1-2.8-2.7-4.5c-0.7-1.7-1-3.4-1-5.2c0-1.9,0.3-3.6,1-5.3c0.6-1.7,1.5-3.2,2.7-4.5c1.1-1.3,2.5-2.3,4.1-3.1  s3.3-1.2,5.1-1.2c1.4,0,2.6,0.2,3.7,0.5c1.1,0.3,2.1,0.7,3,1.3c0.9,0.5,1.6,1.2,2.3,1.9c0.6,0.7,1.2,1.6,1.6,2.4l-2.1,1.4  c-0.9-1.7-2.1-3-3.6-3.8s-3.1-1.2-5-1.2c-1.5,0-2.9,0.3-4.2,1c-1.2,0.7-2.3,1.5-3.2,2.6s-1.5,2.3-2,3.7s-0.7,2.8-0.7,4.3  c0,1.6,0.3,3.1,0.8,4.5s1.3,2.6,2.2,3.7c0.9,1.1,2,1.9,3.3,2.5s2.6,0.9,4.1,0.9c1.6,0,3.1-0.4,4.6-1.1c1.4-0.7,2.8-1.9,4.2-3.5  v-4.6H180v-2.1h8.5v13.7h-2.3V163.8z"></path>	<path class="st0" d="M227.7,140v27.8H225v-13h-16.5v13h-2.7V140h2.7v12.4H225V140H227.7z"></path>	<path class="st0" d="M266.1,142.5h-9.9v25.4h-2.7v-25.4h-9.9v-2.4h22.5L266.1,142.5L266.1,142.5z"></path>	<path class="st0" d="M282,140l9.1,14.9l9.2-14.9h3l-10.8,17.5v10.3h-2.7v-10.4L279.1,140L282,140L282,140z"></path>	<path class="st0" d="M27.9,213.9v-27.8h18.2v2.4H30.6v10.2h13.1v2.3H30.6v12.9H27.9z"></path>	<path class="st0" d="M73.9,211.6c1.7,0,3.2-0.3,4.4-1c1.2-0.7,2.1-1.5,2.8-2.6c0.7-1.1,1.2-2.3,1.4-3.7c0.3-1.4,0.4-2.8,0.4-4.2  v-14h2.7v14c0,1.9-0.2,3.7-0.6,5.3c-0.4,1.7-1.1,3.2-2,4.4c-0.9,1.3-2.1,2.3-3.6,3.1S76.1,214,74,214c-2.2,0-4-0.4-5.5-1.2  s-2.7-1.8-3.6-3.2c-0.9-1.3-1.6-2.8-2-4.5s-0.6-3.4-0.6-5.2v-14H65v14c0,1.5,0.1,2.9,0.4,4.3c0.3,1.4,0.8,2.6,1.5,3.7  c0.7,1.1,1.6,1.9,2.8,2.6C70.7,211.2,72.2,211.6,73.9,211.6z"></path>	<path class="st0" d="M103.8,213.9v-27.8h11.7c1.2,0,2.3,0.3,3.3,0.8s1.9,1.2,2.6,2s1.3,1.8,1.7,2.8c0.4,1,0.6,2.1,0.6,3.2  c0,1-0.2,2-0.4,2.9c-0.3,0.9-0.7,1.8-1.3,2.5c-0.5,0.7-1.2,1.4-1.9,1.9c-0.8,0.5-1.6,0.9-2.5,1l6.8,10.7h-3.1l-6.5-10.3h-8.2v10.3  H103.8z M106.6,201.2h9.1c0.8,0,1.5-0.2,2.2-0.5c0.7-0.4,1.2-0.8,1.7-1.4c0.5-0.6,0.8-1.3,1.1-2c0.3-0.8,0.4-1.6,0.4-2.4  s-0.2-1.6-0.4-2.4c-0.3-0.8-0.7-1.4-1.2-2s-1.1-1-1.8-1.4c-0.7-0.3-1.4-0.5-2.2-0.5h-8.8L106.6,201.2L106.6,201.2z"></path>	<path class="st0" d="M143.8,191.2v22.7h-2.7v-27.8h2.1l18.4,23.1v-23.1h2.7v27.8h-2.4L143.8,191.2z"></path>	<path class="st0" d="M182.9,213.9v-27.8h2.7v27.8H182.9z"></path>	<path class="st0" d="M224,188.5h-9.9v25.4h-2.7v-25.4h-9.9v-2.4H224L224,188.5L224,188.5z"></path>	<path class="st0" d="M251.1,211.6c1.7,0,3.2-0.3,4.4-1c1.2-0.7,2.1-1.5,2.8-2.6c0.7-1.1,1.2-2.3,1.4-3.7c0.3-1.4,0.4-2.8,0.4-4.2  v-14h2.7v14c0,1.9-0.2,3.7-0.6,5.3c-0.4,1.7-1.1,3.2-2,4.4c-0.9,1.3-2.1,2.3-3.6,3.1c-1.5,0.8-3.3,1.1-5.4,1.1  c-2.2,0-4-0.4-5.5-1.2s-2.7-1.8-3.6-3.2c-0.9-1.3-1.6-2.8-2-4.5s-0.6-3.4-0.6-5.2v-14h2.7v14c0,1.5,0.1,2.9,0.4,4.3  s0.8,2.6,1.5,3.7c0.7,1.1,1.6,1.9,2.8,2.6C247.9,211.2,249.3,211.6,251.1,211.6z"></path>	<path class="st0" d="M281,213.9v-27.8h11.7c1.2,0,2.3,0.3,3.3,0.8s1.9,1.2,2.6,2s1.3,1.8,1.7,2.8c0.4,1,0.6,2.1,0.6,3.2  c0,1-0.2,2-0.5,2.9s-0.7,1.8-1.3,2.5c-0.5,0.7-1.2,1.4-1.9,1.9s-1.6,0.9-2.5,1l6.8,10.7h-3.1l-6.5-10.3h-8.2v10.3H281z   M283.7,201.2h9.1c0.8,0,1.5-0.2,2.2-0.5c0.7-0.4,1.2-0.8,1.7-1.4c0.5-0.6,0.8-1.3,1.1-2c0.3-0.8,0.4-1.6,0.4-2.4s-0.2-1.6-0.5-2.4  s-0.7-1.4-1.2-2s-1.1-1-1.8-1.4c-0.7-0.3-1.4-0.5-2.2-0.5h-8.8L283.7,201.2L283.7,201.2z"></path>	<path class="st0" d="M336.9,211.4v2.4h-18.7v-27.8h18.3v2.4h-15.6v10h13.6v2.3h-13.6v10.6h16V211.4z"></path>	<path class="st0" d="M369.4,191.2c-0.8-0.9-1.8-1.6-3.1-2.2c-1.3-0.5-2.8-0.8-4.5-0.8c-2.5,0-4.2,0.5-5.4,1.4  c-1.1,0.9-1.7,2.2-1.7,3.8c0,0.8,0.2,1.5,0.5,2.1c0.3,0.5,0.8,1,1.4,1.4s1.4,0.7,2.4,1s2.1,0.6,3.5,0.9c1.5,0.3,2.8,0.7,4,1.1  c1.2,0.4,2.2,0.9,3,1.5s1.5,1.3,1.9,2.1s0.7,1.9,0.7,3.1c0,1.3-0.2,2.4-0.7,3.3c-0.5,0.9-1.2,1.7-2.1,2.3s-1.9,1.1-3.2,1.4  c-1.2,0.3-2.6,0.4-4,0.4c-4.3,0-8-1.3-11.2-4l1.4-2.2c0.5,0.5,1.1,1,1.8,1.5s1.5,0.9,2.3,1.2s1.8,0.6,2.7,0.8c1,0.2,2,0.3,3.1,0.3  c2.2,0,3.9-0.4,5.2-1.2c1.2-0.8,1.9-2,1.9-3.6c0-0.9-0.2-1.6-0.5-2.2s-0.9-1.1-1.6-1.5s-1.6-0.8-2.6-1.1s-2.3-0.6-3.6-0.9  c-1.5-0.3-2.7-0.7-3.8-1.1s-2-0.8-2.8-1.4s-1.3-1.2-1.7-2c-0.4-0.8-0.6-1.7-0.6-2.8c0-1.3,0.2-2.4,0.7-3.4s1.2-1.8,2.1-2.5  s1.9-1.2,3.1-1.5c1.2-0.4,2.5-0.5,4-0.5c1.9,0,3.5,0.3,5,0.8c1.4,0.6,2.8,1.4,3.9,2.4L369.4,191.2z"></path></g></svg>