<svg xmlns="http://www.w3.org/2000/svg" xmlns:xlink="http://www.w3.org/1999/xlink" id="Layer_1" x="0px" y="0px" viewBox="0 0 400 300" style="enable-background:new 0 0 400 300;" xml:space="preserve"><style type="text/css">	.st0{fill:#FFFFFF;}</style><g>	<path class="st0" d="M126.6,116.1L119,69.7h5.4l5,33.4l6.3-33.2h4.6l6.3,33.4l4.9-33.6h5.3l-7.5,46.5h-4.7l-6.5-34.4l-6.5,34.4  H126.6z"></path>	<path class="st0" d="M158.2,116.1l9.9-46.5h6.3l9.9,46.5h-6.1l-2.1-11.7h-9.5l-2.2,11.7H158.2z M167.4,99.8h7.7l-3.9-20.9  L167.4,99.8z"></path>	<path class="st0" d="M188.9,116.1V69.7h6.5v41.8h11.9v4.6H188.9z"></path>	<path class="st0" d="M211.7,116.1V69.7h6.5v41.8h11.9v4.6H211.7z"></path>	<path class="st0" d="M120.6,173.5V127h11.5c2.8,0,5,0.5,6.7,1.5c1.7,1,2.9,2.5,3.6,4.4c0.8,1.9,1.1,4.2,1.1,6.9  c0,2.4-0.4,4.6-1.3,6.4c-0.9,1.8-2.1,3.2-3.8,4.2c-1.7,1-3.8,1.5-6.3,1.5h-5.1v21.6H120.6z M127.1,147.2h3c1.9,0,3.3-0.2,4.4-0.6  c1.1-0.4,1.8-1.2,2.3-2.2c0.5-1.1,0.7-2.5,0.7-4.4c0-2.2-0.2-3.9-0.5-5.1c-0.3-1.2-1-2-2-2.5c-1-0.5-2.6-0.7-4.8-0.7h-3V147.2z"></path>	<path class="st0" d="M143.4,173.5l9.9-46.5h6.3l9.9,46.5h-6.1l-2.1-11.7h-9.5l-2.2,11.7H143.4z M152.6,157.2h7.7l-3.9-20.9  L152.6,157.2z"></path>	<path class="st0" d="M174.5,173.5V127h6.4v46.5H174.5z"></path>	<path class="st0" d="M188.4,173.5V127h4.4l13.2,30.9V127h5.4v46.5h-4.1l-13.4-31.7v31.7H188.4z"></path>	<path class="st0" d="M223.8,173.5v-41.7H216V127h22v4.8h-7.6v41.7H223.8z"></path>	<path class="st0" d="M131.6,231.4c-2.7,0-4.9-0.6-6.7-1.7c-1.8-1.1-3.1-2.7-4-4.8c-0.9-2-1.5-4.4-1.6-7.1l5.7-1.5  c0.1,1.6,0.4,3.2,0.8,4.8c0.4,1.5,1.1,2.8,2,3.8s2.2,1.5,3.8,1.5c1.7,0,3-0.5,3.8-1.4c0.9-0.9,1.3-2.3,1.3-4c0-2.1-0.5-3.8-1.4-5.1  c-1-1.3-2.2-2.6-3.6-3.9l-7.8-6.9c-1.5-1.3-2.7-2.8-3.4-4.4c-0.7-1.6-1.1-3.5-1.1-5.9c0-3.4,1-6,2.9-7.9c2-1.9,4.6-2.8,8-2.8  c1.8,0,3.5,0.2,4.8,0.7c1.4,0.5,2.6,1.2,3.5,2.2c0.9,1,1.7,2.2,2.2,3.8c0.6,1.5,0.9,3.3,1.1,5.3l-5.5,1.5c-0.1-1.5-0.3-2.9-0.7-4.2  c-0.3-1.3-0.9-2.3-1.8-3.1c-0.9-0.8-2.1-1.2-3.7-1.2c-1.6,0-2.9,0.4-3.8,1.3c-0.9,0.9-1.3,2.1-1.3,3.8c0,1.4,0.2,2.6,0.7,3.5  c0.5,0.9,1.3,1.9,2.3,2.8l7.9,6.9c1.8,1.5,3.3,3.4,4.6,5.5c1.3,2.1,2,4.6,2,7.5c0,2.3-0.5,4.3-1.4,5.9c-1,1.7-2.3,2.9-3.9,3.8  C135.7,231,133.7,231.4,131.6,231.4z"></path>	<path class="st0" d="M147.7,230.9v-46.5h6.5v20.1h11.9v-20.1h6.5v46.5h-6.5v-21.8h-11.9v21.8H147.7z"></path>	<path class="st0" d="M191.8,231.4c-3.1,0-5.6-0.6-7.5-1.8c-1.9-1.2-3.2-3-4-5.3c-0.8-2.3-1.2-4.9-1.2-8v-17.6  c0-3.1,0.4-5.7,1.2-7.9c0.8-2.2,2.2-3.9,4-5.1c1.9-1.2,4.4-1.8,7.5-1.8c3.1,0,5.6,0.6,7.5,1.8c1.8,1.2,3.2,2.9,4,5.1  c0.8,2.2,1.2,4.8,1.2,7.9v17.7c0,3-0.4,5.7-1.2,7.9c-0.8,2.3-2.2,4-4,5.3C197.4,230.8,194.9,231.4,191.8,231.4z M191.8,226.3  c1.7,0,3-0.4,3.9-1.1c0.9-0.7,1.5-1.7,1.8-3c0.3-1.3,0.5-2.8,0.5-4.5v-20.4c0-1.7-0.2-3.2-0.5-4.4c-0.3-1.2-0.9-2.2-1.8-2.9  c-0.9-0.7-2.2-1-3.9-1c-1.7,0-3,0.3-3.9,1c-0.9,0.7-1.5,1.6-1.8,2.9c-0.3,1.2-0.5,2.7-0.5,4.4v20.4c0,1.7,0.2,3.2,0.5,4.5  c0.3,1.3,0.9,2.3,1.8,3C188.8,226,190.1,226.3,191.8,226.3z"></path>	<path class="st0" d="M210.9,230.9v-46.5h11.5c2.8,0,5,0.5,6.7,1.5c1.7,1,2.9,2.5,3.6,4.4c0.8,1.9,1.1,4.2,1.1,6.9  c0,2.4-0.4,4.6-1.3,6.4c-0.9,1.8-2.1,3.2-3.8,4.2c-1.7,1-3.8,1.5-6.3,1.5h-5.1v21.6H210.9z M217.3,204.6h3c1.9,0,3.3-0.2,4.4-0.6  c1.1-0.4,1.8-1.2,2.3-2.2c0.5-1.1,0.7-2.5,0.7-4.4c0-2.2-0.2-3.9-0.5-5.1c-0.3-1.2-1-2-2-2.5c-1-0.5-2.6-0.7-4.8-0.7h-3V204.6z"></path>	<path class="st0" d="M300,250H100V50h200V250z M104.9,245.1h190.2V54.9H104.9V245.1z"></path></g></svg>