<svg xmlns="http://www.w3.org/2000/svg" xmlns:xlink="http://www.w3.org/1999/xlink" id="Layer_1" x="0px" y="0px" viewBox="0 0 400 300" style="enable-background:new 0 0 400 300;" xml:space="preserve"><style type="text/css">	.st0{fill:#FFFFFF;}</style><g>	<path class="st0" d="M94.3,222.4c1.4-0.6,2.4-1.5,3.1-2.7s1.1-2.5,1.1-3.9c0-0.9-0.2-1.8-0.5-2.7s-0.7-1.7-1.3-2.3  c-0.6-0.7-1.3-1.2-2.1-1.7c-0.8-0.4-1.7-0.6-2.7-0.6H76.5v28.8h13.9c1.3,0,2.5-0.2,3.6-0.5s2.1-0.8,3-1.4s1.5-1.4,2-2.3  s0.7-2,0.7-3.2c0-1.9-0.5-3.5-1.4-4.7C97.3,223.8,96,222.9,94.3,222.4z M82.1,213.2h7.7c0.9,0,1.6,0.3,2.2,1  c0.6,0.6,0.9,1.5,0.9,2.6s-0.3,2-1,2.7c-0.7,0.6-1.5,1-2.4,1H82v-7.3H82.1z M93.7,230.2c-0.2,0.5-0.4,0.9-0.8,1.2  c-0.3,0.3-0.7,0.6-1.2,0.8c-0.4,0.2-0.9,0.3-1.4,0.3H82v-7.6h8.6c0.5,0,0.9,0.1,1.3,0.3s0.8,0.5,1.1,0.8c0.3,0.4,0.5,0.8,0.7,1.2  c0.2,0.5,0.3,1,0.3,1.5C94,229.2,93.9,229.7,93.7,230.2z"></path>	<path class="st0" d="M129.8,223.1c0,1.2-0.1,2.3-0.3,3.5c-0.2,1.1-0.6,2.1-1.2,3c-0.6,0.9-1.3,1.6-2.2,2.1c-0.9,0.5-2,0.8-3.3,0.8  s-2.4-0.3-3.3-0.8s-1.6-1.2-2.2-2.1c-0.6-0.9-0.9-1.9-1.2-3c-0.2-1.1-0.3-2.3-0.3-3.5v-14.7h-5.6v14.7c0,1.9,0.2,3.7,0.7,5.4  c0.4,1.7,1.2,3.2,2.2,4.6s2.3,2.4,3.9,3.2s3.6,1.2,5.9,1.2c2.2,0,4.1-0.4,5.7-1.1c1.6-0.8,2.9-1.8,3.9-3.1s1.8-2.8,2.2-4.5  c0.5-1.7,0.7-3.6,0.7-5.5v-14.7h-5.5L129.8,223.1L129.8,223.1z"></path>	<polygon class="st0" points="153.1,208.4 147.5,208.4 147.5,237.2 167.8,237.2 167.8,232.3 153.1,232.3  "></polygon>	<polygon class="st0" points="183.3,208.4 177.7,208.4 177.7,237.2 198,237.2 198,232.3 183.3,232.3  "></polygon>	<path class="st0" d="M226.1,223.3c-0.8-0.6-1.8-1.2-2.9-1.6c-1.1-0.4-2.4-0.8-3.8-1.2c-1.1-0.3-2-0.5-2.9-0.8  c-0.8-0.2-1.5-0.5-2-0.8s-1-0.6-1.2-1c-0.3-0.4-0.4-0.9-0.4-1.5c0-1,0.4-1.8,1.1-2.4c0.8-0.6,1.9-0.9,3.4-0.9  c0.9,0,1.7,0.1,2.6,0.3c0.8,0.2,1.6,0.5,2.3,0.8s1.3,0.6,1.8,1c0.5,0.3,0.8,0.6,1,0.8l2.5-4.5c-1.3-0.9-2.8-1.6-4.5-2.2  c-1.7-0.6-3.6-1-5.6-1c-1.5,0-2.8,0.2-4.1,0.6c-1.3,0.4-2.4,1-3.3,1.7c-1,0.8-1.7,1.7-2.2,2.8s-0.8,2.4-0.8,3.9  c0,1.1,0.2,2.1,0.5,2.9c0.3,0.8,0.8,1.5,1.5,2.1s1.5,1.1,2.5,1.6c1,0.4,2.2,0.9,3.6,1.2c1.1,0.3,2.2,0.6,3.1,0.9  c0.9,0.3,1.7,0.6,2.3,0.9c0.6,0.3,1.1,0.7,1.5,1.1c0.4,0.4,0.5,1,0.5,1.6c0,2-1.5,3-4.6,3c-1.1,0-2.2-0.1-3.2-0.4  c-1.1-0.3-2-0.6-2.9-1s-1.6-0.8-2.2-1.2c-0.6-0.4-1.1-0.7-1.3-1l-2.5,4.8c1.7,1.2,3.6,2.1,5.7,2.8c2.1,0.6,4.2,1,6.4,1  c1.4,0,2.7-0.2,4-0.5s2.4-0.8,3.4-1.5s1.8-1.6,2.3-2.7c0.6-1.1,0.9-2.4,0.9-3.9c0-1.3-0.2-2.4-0.6-3.3  C227.5,224.7,226.9,223.9,226.1,223.3z"></path>	<polygon class="st0" points="244.9,224.8 257,224.8 257,220.3 244.9,220.3 244.9,213.3 258.9,213.3 258.9,208.4 239.3,208.4   239.3,237.2 259.3,237.2 259.3,232.3 244.9,232.3  "></polygon>	<polygon class="st0" points="280.6,222.3 273.5,208.4 267.4,208.4 277.8,227.1 277.8,237.2 283.4,237.2 283.4,227.1 293.8,208.4   287.8,208.4  "></polygon>	<polygon class="st0" points="309.1,232.3 309.1,224.8 321.2,224.8 321.2,220.3 309.1,220.3 309.1,213.3 323.1,213.3 323.1,208.4   303.5,208.4 303.5,237.2 323.5,237.2 323.5,232.3  "></polygon>	<g>		<path class="st0" d="M199.2,62.5c-32.7,0-59.1,26.4-59.1,59.1c0,32.7,26.4,59.1,59.1,59.1s59.1-26.5,59.1-59.1   C258.3,89,231.9,62.5,199.2,62.5z M235.8,121.6c0,20.2-16.4,36.6-36.6,36.6s-36.6-16.4-36.6-36.6c0,0,0,0,0,0s0,0,0,0   c0-20.2,16.4-36.6,36.6-36.6S235.8,101.3,235.8,121.6C235.8,121.5,235.8,121.5,235.8,121.6C235.8,121.6,235.8,121.6,235.8,121.6z"></path>		<path class="st0" d="M199.2,113.2c-4.6,0-8.4,3.8-8.4,8.4c0,0.3,0,0.6,0,0.9c0,0.1,0,0.2,0,0.2c0,0.2,0.1,0.4,0.1,0.6   c0,0.1,0,0.1,0,0.2c0,0.2,0.1,0.4,0.2,0.6c0,0,0,0,0,0c1.1,3.4,4.3,5.9,8,5.9c4.6,0,8.4-3.8,8.4-8.4   C207.6,117,203.8,113.2,199.2,113.2z"></path>	</g></g></svg>