<svg xmlns="http://www.w3.org/2000/svg" xmlns:xlink="http://www.w3.org/1999/xlink" id="Layer_1" x="0px" y="0px" viewBox="0 0 400 300" style="enable-background:new 0 0 400 300;" xml:space="preserve"><style type="text/css">	.st0{fill:#FFFFFF;}</style><g>	<path class="st0" d="M91.7,139.5c1.5,0,2.9-0.1,4.1-0.4c1.2-0.3,2.3-0.6,3.4-1.1v-7.3h-4.8c-0.7,0-1.3-0.2-1.7-0.6  c-0.4-0.4-0.6-0.8-0.6-1.4v-6.1h17.1v20.3c-1.2,0.9-2.5,1.7-3.8,2.3c-1.3,0.6-2.8,1.2-4.3,1.6c-1.5,0.4-3.1,0.7-4.8,0.9  c-1.7,0.2-3.5,0.3-5.5,0.3c-3.5,0-6.8-0.6-9.8-1.9c-3-1.2-5.6-3-7.8-5.2c-2.2-2.2-3.9-4.8-5.2-7.8c-1.2-3-1.9-6.3-1.9-9.8  c0-3.6,0.6-6.9,1.8-9.9c1.2-3,2.9-5.6,5.1-7.8s4.9-3.9,8-5.1c3.1-1.2,6.6-1.8,10.5-1.8c2,0,3.9,0.2,5.6,0.5  c1.8,0.3,3.4,0.8,4.9,1.4c1.5,0.6,2.8,1.3,4.1,2c1.2,0.8,2.3,1.7,3.3,2.6l-3.2,4.9c-0.3,0.5-0.7,0.8-1.1,1.1  c-0.4,0.3-0.9,0.4-1.4,0.4c-0.7,0-1.3-0.2-2-0.7c-0.9-0.5-1.7-1-2.5-1.4c-0.8-0.4-1.6-0.7-2.4-0.9c-0.8-0.2-1.7-0.4-2.6-0.5  c-0.9-0.1-1.9-0.2-3-0.2c-2.1,0-4,0.4-5.6,1.1c-1.7,0.7-3.1,1.8-4.3,3.1c-1.2,1.3-2.1,3-2.7,4.8c-0.6,1.9-1,4-1,6.3  c0,2.6,0.4,4.8,1.1,6.8c0.7,2,1.7,3.7,2.9,5c1.2,1.4,2.7,2.4,4.4,3.1C87.8,139.1,89.7,139.5,91.7,139.5z"></path>	<path class="st0" d="M163.6,123.4c0,3.5-0.6,6.7-1.8,9.7c-1.2,3-2.9,5.6-5.1,7.8c-2.2,2.2-4.8,3.9-7.9,5.2s-6.5,1.9-10.2,1.9  s-7.2-0.6-10.2-1.9c-3.1-1.3-5.7-3-7.9-5.2c-2.2-2.2-3.9-4.8-5.1-7.8c-1.2-3-1.8-6.2-1.8-9.7c0-3.5,0.6-6.7,1.8-9.7  c1.2-3,2.9-5.6,5.1-7.8c2.2-2.2,4.8-3.9,7.9-5.2c3.1-1.3,6.5-1.9,10.2-1.9s7.2,0.6,10.2,1.9c3.1,1.3,5.7,3,7.9,5.2  c2.2,2.2,3.9,4.8,5.1,7.8C163,116.8,163.6,120,163.6,123.4z M152.1,123.4c0-2.4-0.3-4.5-0.9-6.4s-1.5-3.5-2.7-4.8  c-1.2-1.3-2.6-2.3-4.2-3c-1.7-0.7-3.6-1.1-5.7-1.1c-2.2,0-4.1,0.4-5.8,1.1c-1.7,0.7-3.1,1.7-4.3,3c-1.2,1.3-2,2.9-2.7,4.8  s-0.9,4-0.9,6.4c0,2.4,0.3,4.6,0.9,6.5c0.6,1.9,1.5,3.5,2.7,4.8c1.2,1.3,2.6,2.3,4.3,3c1.7,0.7,3.6,1,5.8,1c2.1,0,4-0.3,5.7-1  c1.7-0.7,3.1-1.7,4.2-3c1.2-1.3,2-2.9,2.7-4.8C151.8,128,152.1,125.8,152.1,123.4z"></path>	<path class="st0" d="M180.1,138.6h17.8v8.9h-29V99.4h11.2V138.6z"></path>	<path class="st0" d="M246.9,123.4c0,3.5-0.6,6.7-1.8,9.6c-1.2,2.9-2.9,5.5-5.1,7.6c-2.2,2.1-4.8,3.8-7.9,5  c-3.1,1.2-6.5,1.8-10.2,1.8h-18.7V99.4h18.7c3.7,0,7.2,0.6,10.2,1.8c3.1,1.2,5.7,2.9,7.9,5c2.2,2.1,3.9,4.7,5.1,7.6  C246.3,116.8,246.9,120,246.9,123.4z M235.4,123.4c0-2.4-0.3-4.5-0.9-6.4c-0.6-1.9-1.5-3.5-2.7-4.9c-1.2-1.3-2.6-2.4-4.2-3.1  c-1.7-0.7-3.6-1.1-5.7-1.1h-7.5v31h7.5c2.1,0,4-0.4,5.7-1.1c1.7-0.7,3.1-1.7,4.2-3.1c1.2-1.3,2-3,2.7-4.9  C235.1,128,235.4,125.8,235.4,123.4z"></path>	<path class="st0" d="M283.2,99.4v8.6h-19.8v11.2h15.1v8.3h-15.1v11.5h19.8v8.6h-31V99.4H283.2z"></path>	<path class="st0" d="M296.6,99.5c0.3,0,0.6,0.1,0.9,0.2c0.3,0.1,0.5,0.3,0.8,0.5c0.2,0.2,0.5,0.5,0.8,0.9L322,130  c-0.1-0.9-0.2-1.8-0.2-2.7c0-0.9-0.1-1.7-0.1-2.5V99.4h9.8v48.1h-5.8c-0.9,0-1.6-0.1-2.2-0.4c-0.6-0.3-1.2-0.7-1.7-1.5L299.2,117  c0.1,0.8,0.1,1.7,0.2,2.5c0,0.8,0.1,1.6,0.1,2.3v25.8h-9.8V99.4h5.9C295.9,99.4,296.3,99.4,296.6,99.5z"></path></g><g>	<path class="st0" d="M310.8,156.1c-1.6,0-3.1,0.1-4.4,0.2c-1.3,0.2-2.5,0.4-3.7,0.7c-1.1,0.3-2.2,0.7-3.2,1.2c-1,0.5-2.1,1-3.1,1.6  v12.6h9c0.2,0,0.4,0.1,0.6,0.2c0.2,0.2,0.2,0.3,0.2,0.5v1.8h-12.9v-16.6c1.2-0.8,2.4-1.5,3.6-2.2c1.3-0.6,2.6-1.2,4-1.6  c1.4-0.4,3-0.8,4.6-1c1.7-0.2,3.5-0.3,5.4-0.3c3.4,0,6.4,0.6,9.2,1.7c2.8,1.1,5.2,2.7,7.2,4.8c2,2.1,3.5,4.6,4.6,7.5  c1.1,3,1.7,6.2,1.7,9.8c0,3.6-0.6,6.9-1.7,9.8c-1.1,2.9-2.7,5.5-4.7,7.5c-2,2.1-4.5,3.7-7.4,4.8c-2.9,1.1-6.1,1.7-9.7,1.7  c-1.8,0-3.4-0.1-4.9-0.4c-1.5-0.2-2.9-0.6-4.2-1.1c-1.3-0.5-2.5-1.1-3.6-1.8c-1.1-0.7-2.2-1.5-3.2-2.4l0.9-1.5  c0.2-0.3,0.5-0.5,0.8-0.5c0.2,0,0.4,0,0.6,0.1c0.3,0.1,0.8,0.4,1.4,0.9c0.6,0.5,1.5,1,2.5,1.5c1.1,0.5,2.4,1,4,1.4  c1.6,0.4,3.6,0.6,5.8,0.6c3,0,5.8-0.5,8.2-1.5c2.4-1,4.5-2.4,6.3-4.2c1.7-1.8,3.1-4,4-6.6s1.4-5.5,1.4-8.8c0-3.3-0.5-6.3-1.4-8.9  c-0.9-2.6-2.3-4.8-4-6.7c-1.7-1.8-3.8-3.2-6.1-4.2C316.3,156.6,313.7,156.1,310.8,156.1z"></path>	<path class="st0" d="M239.8,177.3c0-3.6,0.5-6.9,1.6-9.8c1.1-2.9,2.6-5.5,4.6-7.5c2-2.1,4.3-3.7,7-4.8c2.7-1.1,5.8-1.7,9.1-1.7  c3.3,0,6.3,0.6,9,1.7c2.7,1.1,5.1,2.7,7,4.8c2,2.1,3.5,4.6,4.6,7.5c1.1,2.9,1.6,6.2,1.6,9.8c0,3.6-0.5,6.9-1.6,9.8  c-1.1,2.9-2.6,5.5-4.6,7.5c-2,2.1-4.3,3.7-7,4.8c-2.7,1.1-5.7,1.7-9,1.7c-3.3,0-6.4-0.6-9.1-1.7c-2.7-1.1-5.1-2.7-7-4.8  c-2-2.1-3.5-4.6-4.6-7.5C240.3,184.1,239.8,180.8,239.8,177.3z M243.3,177.3c0,3.3,0.5,6.2,1.4,8.8c0.9,2.6,2.2,4.8,3.8,6.6  c1.6,1.8,3.6,3.2,5.9,4.1c2.3,1,4.9,1.4,7.7,1.4c2.8,0,5.3-0.5,7.6-1.4c2.3-1,4.3-2.3,5.9-4.1c1.7-1.8,3-4,3.9-6.6  c0.9-2.6,1.4-5.5,1.4-8.8c0-3.3-0.5-6.2-1.4-8.8c-0.9-2.6-2.2-4.8-3.9-6.6c-1.7-1.8-3.6-3.2-5.9-4.1c-2.3-0.9-4.8-1.4-7.6-1.4  c-2.8,0-5.4,0.5-7.7,1.4c-2.3,0.9-4.3,2.3-5.9,4.1c-1.6,1.8-2.9,4-3.8,6.6C243.7,171,243.3,174,243.3,177.3z"></path>	<path class="st0" d="M225.4,156.7h-22.2v-2.9h25.5v46.7h-3.4V156.7z"></path>	<path class="st0" d="M155.6,177.3c0-3.6,0.5-6.9,1.6-9.7c1.1-2.9,2.6-5.3,4.6-7.4c2-2,4.3-3.6,7-4.7c2.7-1.1,5.8-1.6,9.1-1.6h17  v46.7h-17c-3.3,0-6.4-0.5-9.1-1.6c-2.7-1.1-5.1-2.6-7-4.7c-2-2-3.5-4.5-4.6-7.4C156.2,184.1,155.6,180.8,155.6,177.3z M159.1,177.3  c0,3.3,0.5,6.2,1.4,8.7c0.9,2.6,2.2,4.7,3.8,6.5c1.6,1.8,3.6,3.1,5.9,4c2.3,0.9,4.9,1.4,7.7,1.4h13.6v-41.3h-13.6  c-2.8,0-5.4,0.5-7.7,1.4c-2.3,0.9-4.3,2.3-5.9,4c-1.6,1.8-2.9,3.9-3.8,6.5C159.6,171.1,159.1,174,159.1,177.3z"></path>	<path class="st0" d="M116.8,200.6v-2.8h24.6v-18.9h-20.5v-2.7h20.5v-19.5h-24.6v-2.8h28v46.7H116.8z"></path>	<path class="st0" d="M103.4,200.5c-0.2-0.1-0.4-0.2-0.6-0.5l-30.3-40.5c0.1,0.7,0.1,1.3,0.1,1.9v39.2h-3v-46.7h1.6  c0.5,0,0.9,0.2,1.2,0.7l30.4,40.6c-0.1-0.7-0.1-1.3-0.1-1.9v-39.3h2.9v46.7h-1.7C103.8,200.6,103.5,200.6,103.4,200.5z"></path></g></svg>