<svg xmlns="http://www.w3.org/2000/svg" xmlns:xlink="http://www.w3.org/1999/xlink" id="Layer_1" x="0px" y="0px" viewBox="0 0 400 300" style="enable-background:new 0 0 400 300;" xml:space="preserve"><style type="text/css">	.st0{fill:#FFFFFF;}</style><g>	<g>		<path class="st0" d="M122.8,233.6h11.4v4.4h-2.8v15.5h2.8v4.4h-11.4v-4.4h2.8V238h-2.8V233.6z"></path>		<path class="st0" d="M147.3,233h8v20.5h3.6v4.4h-9v-0.6c-0.6,0.3-1.3,0.5-1.9,0.7c-0.7,0.2-1.3,0.3-2,0.3c-1.4,0-2.7-0.2-3.8-0.7   c-1.2-0.5-2.2-1.1-3-1.9c-0.8-0.8-1.5-1.7-2-2.8s-0.7-2.2-0.7-3.4c0-1.2,0.2-2.4,0.7-3.4c0.5-1.1,1.1-2,1.9-2.7s1.8-1.4,3-1.8   c1.2-0.4,2.4-0.7,3.8-0.7c0.8,0,1.5,0.1,2.1,0.2s1.3,0.3,1.9,0.6v-4.2h-2.6V233z M146.2,253.8c0.8,0,1.5-0.2,2.1-0.5   c0.6-0.3,1.1-0.8,1.6-1.3V247c-0.4-0.6-0.9-1-1.6-1.3c-0.7-0.3-1.3-0.5-2.1-0.5c-0.6,0-1.2,0.1-1.7,0.3c-0.5,0.2-1,0.5-1.4,0.9   c-0.4,0.4-0.7,0.8-1,1.3c-0.2,0.5-0.4,1.1-0.4,1.8c0,0.7,0.1,1.2,0.4,1.8s0.6,1,1,1.3c0.4,0.4,0.9,0.6,1.4,0.8   C145,253.6,145.6,253.8,146.2,253.8z"></path>		<path class="st0" d="M165.9,250.6l0.1,0.5c0.1,0.5,0.3,0.9,0.7,1.3c0.3,0.4,0.7,0.7,1.1,0.9c0.4,0.2,0.9,0.4,1.4,0.6   c0.5,0.1,1,0.2,1.6,0.2c0.5,0,1,0,1.5-0.1s0.9-0.1,1.4-0.2c0.4-0.1,0.9-0.2,1.3-0.4c0.4-0.1,0.9-0.3,1.3-0.4l1.9,3.3   c-0.7,0.4-1.3,0.7-1.8,1c-0.6,0.3-1.1,0.5-1.7,0.6c-0.6,0.2-1.2,0.3-1.8,0.4s-1.4,0.1-2.2,0.1c-1.6,0-3-0.2-4.2-0.7   c-1.2-0.5-2.3-1.1-3.1-1.9c-0.8-0.8-1.5-1.8-1.9-2.9c-0.4-1.1-0.7-2.2-0.7-3.5s0.2-2.4,0.7-3.4c0.5-1.1,1.1-2,2-2.8   c0.8-0.8,1.9-1.4,3-1.9c1.2-0.5,2.5-0.7,3.9-0.7s2.7,0.2,3.8,0.6c1.1,0.4,2,1,2.8,1.8c0.8,0.8,1.3,1.7,1.8,2.7   c0.4,1,0.6,2.1,0.7,3.3c0,0.3,0.1,0.5,0.1,0.8c0,0.3,0,0.5,0,0.8H165.9z M170.1,244.6c-0.7,0-1.2,0.1-1.7,0.2   c-0.5,0.1-0.9,0.3-1.2,0.6c-0.3,0.3-0.6,0.5-0.8,0.9c-0.2,0.3-0.3,0.7-0.4,1h7.6c-0.1-0.4-0.2-0.7-0.4-1c-0.2-0.3-0.4-0.6-0.6-0.8   c-0.3-0.2-0.6-0.4-1-0.6C171.2,244.6,170.7,244.6,170.1,244.6z"></path>		<path class="st0" d="M193.3,257c-0.4,0.2-0.8,0.4-1.1,0.6c-0.3,0.2-0.7,0.3-1,0.4c-0.3,0.1-0.7,0.2-1.1,0.2   c-0.4,0-0.8,0.1-1.2,0.1c-1.1,0-2.1-0.1-2.9-0.4s-1.6-0.6-2.2-1.1c-0.6-0.5-1-1-1.4-1.7c-0.3-0.6-0.5-1.3-0.5-2.1   c0-0.8,0.2-1.5,0.5-2.1s0.8-1.2,1.4-1.7s1.4-0.8,2.2-1.1s1.9-0.4,3-0.4c0.8,0,1.6,0,2.3,0.1c0.7,0.1,1.3,0.2,1.9,0.3v-0.5   c0-0.4-0.1-0.8-0.3-1.1c-0.2-0.3-0.4-0.6-0.7-0.8c-0.3-0.2-0.7-0.3-1.1-0.4s-0.9-0.1-1.5-0.1c-1.1,0-2.1,0.1-2.9,0.3   s-1.6,0.5-2.4,0.9l-1.7-3.1c1.2-0.7,2.5-1.3,3.8-1.7c1.3-0.4,2.7-0.6,4.2-0.6c1.1,0,2.2,0.1,3.2,0.3s1.8,0.6,2.5,1.1   c0.7,0.5,1.2,1.2,1.6,2c0.4,0.8,0.6,1.8,0.6,3v6h2.4v4.4h-7.6V257z M189.3,254.5c0.8,0,1.6-0.1,2.3-0.4c0.7-0.2,1.3-0.5,1.7-0.9   v-2.1H189c-0.3,0-0.5,0-0.8,0.1c-0.3,0.1-0.5,0.2-0.7,0.3c-0.2,0.1-0.4,0.3-0.5,0.5c-0.1,0.2-0.2,0.4-0.2,0.7   c0,0.5,0.2,0.9,0.6,1.2C187.9,254.3,188.5,254.5,189.3,254.5z"></path>		<path class="st0" d="M203.7,233h8v8.7c0.6-0.3,1.3-0.5,2-0.6c0.7-0.1,1.4-0.2,2.1-0.2c1.4,0,2.6,0.2,3.8,0.7s2.1,1.1,3,1.9   s1.5,1.7,2,2.8c0.5,1.1,0.7,2.2,0.7,3.4c0,1.2-0.2,2.3-0.7,3.4c-0.5,1.1-1.1,2-1.9,2.8c-0.8,0.8-1.8,1.4-3,1.9   c-1.2,0.5-2.4,0.7-3.8,0.7c-0.7,0-1.4-0.1-2.1-0.2c-0.7-0.1-1.3-0.3-1.9-0.5v0.4h-5.4v-20.5h-2.6V233z M215.3,245.2   c-0.8,0-1.5,0.2-2.1,0.5s-1.1,0.8-1.6,1.4v5c0.4,0.5,0.9,0.9,1.5,1.2c0.6,0.3,1.3,0.5,2.1,0.5c0.6,0,1.2-0.1,1.7-0.3   c0.5-0.2,1-0.5,1.4-0.8s0.7-0.8,1-1.3s0.4-1.1,0.4-1.8c0-0.7-0.1-1.3-0.4-1.8c-0.2-0.5-0.6-1-1-1.4c-0.4-0.4-0.9-0.7-1.4-0.9   C216.5,245.3,215.9,245.2,215.3,245.2z"></path>		<path class="st0" d="M227.4,249.5c0-1.2,0.2-2.3,0.7-3.4c0.5-1.1,1.2-2,2-2.8s1.9-1.4,3.1-1.9s2.5-0.7,3.9-0.7s2.7,0.2,3.9,0.7   s2.2,1.1,3.1,1.9s1.5,1.7,2,2.8c0.5,1.1,0.7,2.2,0.7,3.4c0,1.2-0.2,2.3-0.7,3.4s-1.1,2-2,2.8c-0.9,0.8-1.9,1.4-3.1,1.9   s-2.5,0.7-4,0.7c-1.5,0-2.8-0.2-4-0.7s-2.2-1.1-3.1-1.9s-1.5-1.7-2-2.8C227.7,251.9,227.4,250.7,227.4,249.5z M232.7,249.5   c0,0.6,0.1,1.2,0.4,1.7c0.2,0.5,0.6,1,1,1.4c0.4,0.4,0.9,0.7,1.4,0.9s1.1,0.3,1.7,0.3c0.6,0,1.2-0.1,1.7-0.3s1-0.5,1.4-0.9   s0.7-0.8,0.9-1.4c0.2-0.5,0.3-1.1,0.3-1.8c0-0.7-0.1-1.3-0.3-1.8c-0.2-0.5-0.5-1-0.9-1.4c-0.4-0.4-0.9-0.7-1.4-0.9   c-0.5-0.2-1.1-0.3-1.7-0.3c-0.6,0-1.2,0.1-1.7,0.3c-0.5,0.2-1,0.5-1.4,0.9c-0.4,0.4-0.7,0.8-1,1.4   C232.8,248.3,232.7,248.9,232.7,249.5z"></path>		<path class="st0" d="M260.2,253.5h1l-2.3-2l-2.4,2h1.2v4.4h-8.6v-4.4h1.8l4.5-4l-4.2-3.8h-2.1v-4.4h8.6v4.4H257l2.1,1.7l2-1.7h-1   v-4.4h8.6v4.4h-2l-4.2,3.8l4.5,4h1.8v4.4h-8.6V253.5z"></path>		<path class="st0" d="M271.1,255.3c0-0.4,0.1-0.8,0.3-1.2c0.2-0.4,0.4-0.7,0.7-1s0.7-0.5,1.1-0.7c0.4-0.2,0.9-0.2,1.4-0.2   c0.5,0,0.9,0.1,1.3,0.2c0.4,0.2,0.8,0.4,1.1,0.7c0.3,0.3,0.6,0.6,0.7,1s0.3,0.8,0.3,1.2c0,0.4-0.1,0.8-0.3,1.2   c-0.2,0.4-0.4,0.7-0.7,1c-0.3,0.3-0.7,0.5-1.1,0.7c-0.4,0.2-0.9,0.2-1.3,0.2c-0.5,0-0.9-0.1-1.4-0.2c-0.4-0.2-0.8-0.4-1.1-0.7   c-0.3-0.3-0.6-0.6-0.7-1C271.2,256.1,271.1,255.7,271.1,255.3z"></path>	</g></g><path class="st0" d="M278.5,41.6h-157c-4.7,0-8.5,3.8-8.5,8.5v157c0,4.7,3.8,8.5,8.5,8.5h157c4.7,0,8.5-3.8,8.5-8.5v-157 C287,45.4,283.2,41.6,278.5,41.6z M118,107.5l103,103h-17.3L118,124.8V107.5z M118,207.1v-59.8l63.3,63.3h-59.8 C119.6,210.6,118,209,118,207.1z M282,207.1c0,1.9-1.6,3.5-3.5,3.5h-35L118,85v-35c0-1.9,1.6-3.5,3.5-3.5h157c1.9,0,3.5,1.6,3.5,3.5 V207.1z"></path></svg>