<svg xmlns="http://www.w3.org/2000/svg" xmlns:xlink="http://www.w3.org/1999/xlink" id="Layer_1" x="0px" y="0px" viewBox="0 0 400 300" style="enable-background:new 0 0 400 300;" xml:space="preserve"><style type="text/css">	.st0{fill:#FFFFFF;}</style><g>	<path class="st0" d="M151.3,123.9c-2.3-1.2-4.1-3-5.4-5.2c-1.3-2.2-2-4.7-2-7.5c0-2.8,0.7-5.3,2-7.5c1.3-2.2,3.1-3.9,5.4-5.2  c2.3-1.2,4.9-1.9,7.8-1.9c2.4,0,4.6,0.4,6.6,1.3c2,0.9,3.6,2.1,4.9,3.7l-4.2,3.8c-1.9-2.2-4.2-3.3-7-3.3c-1.7,0-3.3,0.4-4.6,1.1  c-1.4,0.8-2.4,1.8-3.2,3.2c-0.8,1.4-1.1,2.9-1.1,4.6s0.4,3.3,1.1,4.6c0.8,1.4,1.8,2.4,3.2,3.2c1.4,0.8,2.9,1.1,4.6,1.1  c2.8,0,5.1-1.1,7-3.3l4.2,3.8c-1.3,1.6-3,2.9-5,3.7c-2,0.9-4.2,1.3-6.6,1.3C156.2,125.7,153.6,125.1,151.3,123.9z"></path>	<path class="st0" d="M175,97.3h6.5V120h14v5.3H175V97.3z"></path>	<path class="st0" d="M199.2,97.3h6.5v28h-6.5V97.3z"></path>	<path class="st0" d="M237.8,125.3l0-16.8l-8.2,13.8h-2.9l-8.2-13.5v16.4h-6.1v-28h5.4l10.5,17.4l10.3-17.4h5.3l0.1,28H237.8z"></path>	<path class="st0" d="M274.8,113.2c0.9,1.2,1.4,2.6,1.4,4.4c0,2.5-1,4.3-2.9,5.7c-1.9,1.3-4.7,2-8.3,2h-14.5v-28h13.7  c3.4,0,6,0.7,7.9,2c1.8,1.3,2.7,3.1,2.7,5.3c0,1.4-0.3,2.6-1,3.6c-0.7,1.1-1.6,1.9-2.7,2.5C272.7,111.2,273.9,112.1,274.8,113.2z   M256.9,102.1v6.6h6.4c1.6,0,2.8-0.3,3.6-0.8c0.8-0.6,1.2-1.4,1.2-2.5c0-1.1-0.4-1.9-1.2-2.5c-0.8-0.5-2-0.8-3.6-0.8H256.9z   M268.4,119.5c0.9-0.6,1.3-1.4,1.3-2.6c0-2.3-1.7-3.5-5.2-3.5h-7.6v6.9h7.6C266.2,120.4,267.5,120.1,268.4,119.5z"></path>	<path class="st0" d="M151.5,141.3h-9V136h24.4v5.3h-9V164h-6.5V141.3z"></path>	<path class="st0" d="M196.1,136v28h-6.5v-11.5h-12.7V164h-6.5v-28h6.5v11h12.7v-11H196.1z"></path>	<path class="st0" d="M224.4,158.8v5.2h-21.7v-28h21.2v5.2h-14.7v6.1h13v5h-13v6.5H224.4z"></path>	<path class="st0" d="M171.2,202.7l0-16.8l-8.2,13.8H160l-8.2-13.5v16.4h-6.1v-28h5.4l10.5,17.4l10.3-17.4h5.3l0.1,28H171.2z"></path>	<path class="st0" d="M189.6,201.3c-2.3-1.3-4.2-3-5.5-5.2c-1.3-2.2-2-4.7-2-7.4c0-2.7,0.7-5.2,2-7.4c1.3-2.2,3.1-3.9,5.5-5.2  c2.3-1.3,5-1.9,7.9-1.9c2.9,0,5.5,0.6,7.8,1.9c2.3,1.3,4.1,3,5.5,5.2c1.3,2.2,2,4.7,2,7.4c0,2.7-0.7,5.2-2,7.4  c-1.3,2.2-3.2,3.9-5.5,5.2c-2.3,1.3-4.9,1.9-7.8,1.9C194.5,203.2,191.9,202.6,189.6,201.3z M201.9,196.6c1.3-0.8,2.4-1.8,3.1-3.2  c0.8-1.4,1.1-2.9,1.1-4.6c0-1.7-0.4-3.3-1.1-4.6c-0.8-1.4-1.8-2.4-3.1-3.2c-1.3-0.8-2.8-1.1-4.5-1.1c-1.7,0-3.1,0.4-4.5,1.1  c-1.3,0.8-2.4,1.8-3.1,3.2c-0.8,1.4-1.1,2.9-1.1,4.6c0,1.7,0.4,3.3,1.1,4.6c0.8,1.4,1.8,2.4,3.1,3.2c1.3,0.8,2.8,1.1,4.5,1.1  C199.1,197.7,200.6,197.3,201.9,196.6z"></path>	<path class="st0" d="M220.8,199.9c-2.2-2.2-3.3-5.4-3.3-9.5v-15.7h6.5v15.4c0,5,2.1,7.5,6.2,7.5c2,0,3.6-0.6,4.6-1.8  c1.1-1.2,1.6-3.1,1.6-5.7v-15.4h6.4v15.7c0,4.1-1.1,7.3-3.3,9.5c-2.2,2.2-5.3,3.3-9.3,3.3S223,202.1,220.8,199.9z"></path>	<path class="st0" d="M274.9,174.7v28h-5.3l-14-17v17h-6.4v-28h5.4l13.9,17v-17H274.9z"></path>	<path class="st0" d="M287.3,180h-9v-5.3h24.4v5.3h-9v22.7h-6.5V180z"></path>	<path class="st0" d="M323.3,196.7h-13l-2.5,6h-6.6l12.5-28h6.4l12.5,28h-6.8L323.3,196.7z M321.2,191.8l-4.4-10.7l-4.4,10.7H321.2z  "></path>	<path class="st0" d="M335.5,174.7h6.5v28h-6.5V174.7z"></path>	<path class="st0" d="M374.3,174.7v28H369l-14-17v17h-6.4v-28h5.4l13.9,17v-17H374.3z"></path></g><path class="st0" d="M25.7,97v106h106V97H25.7z M58.1,152.8c0.7,0.7,1.5,1,2.6,1c1.4,0,2.4-0.6,3.1-1.9l3.1,1.7 c-0.5,1.1-1.3,1.9-2.4,2.5c-1.1,0.6-2.3,0.9-3.8,0.9c-1.5,0-2.8-0.3-3.9-0.9c-1.2-0.6-2.1-1.4-2.7-2.5c-0.7-1.1-1-2.3-1-3.6 c0-1.4,0.3-2.6,1-3.6c0.7-1.1,1.6-1.9,2.7-2.5c1.2-0.6,2.5-0.9,3.9-0.9c1.4,0,2.7,0.3,3.8,0.9c1.1,0.6,1.9,1.5,2.4,2.6l-3.1,1.7 c-0.7-1.3-1.7-1.9-3.1-1.9c-1,0-1.9,0.3-2.6,1c-0.7,0.7-1,1.6-1,2.8C57,151.2,57.4,152.1,58.1,152.8z M76.7,156.9 c-0.6,0.1-1.2,0.2-1.8,0.2c-1.6,0-2.9-0.4-3.8-1.2s-1.3-2.1-1.3-3.7v-5.6h-2.1v-3.1h2.1v-3.3h4v3.3h3.4v3.1h-3.4v5.6 c0,0.6,0.1,1,0.4,1.3c0.3,0.3,0.7,0.5,1.3,0.5c0.6,0,1.2-0.2,1.6-0.5l1.1,2.8C77.7,156.5,77.3,156.7,76.7,156.9z M103.5,156.9h-4 v-7.2c0-1.1-0.2-1.9-0.7-2.4c-0.4-0.5-1.1-0.8-1.9-0.8c-0.9,0-1.7,0.3-2.2,0.9c-0.5,0.6-0.8,1.5-0.8,2.7v6.9h-4v-7.2 c0-2.2-0.9-3.2-2.6-3.2c-0.9,0-1.6,0.3-2.2,0.9c-0.5,0.6-0.8,1.5-0.8,2.7v6.9h-4v-13.7h3.8v1.6c0.5-0.6,1.1-1,1.9-1.3 c0.7-0.3,1.5-0.5,2.4-0.5c1,0,1.8,0.2,2.6,0.6c0.8,0.4,1.4,0.9,1.9,1.7c0.6-0.7,1.3-1.3,2.1-1.7c0.9-0.4,1.8-0.6,2.8-0.6 c1.7,0,3.1,0.5,4.1,1.5c1,1,1.5,2.5,1.5,4.5V156.9z"></path></svg>